<svg width="24" height="24" viewBox="0 0 24 24" fill="none" xmlns="http://www.w3.org/2000/svg">
<path d="M17.602 15.9836C17.2312 15.9836 16.8756 15.8433 16.6134 15.5938L12.0087 11.2119L7.4041 15.5938C7.27511 15.7209 7.12081 15.8222 6.95021 15.892C6.77962 15.9617 6.59613 15.9984 6.41046 16C6.2248 16.0015 6.04067 15.9678 5.86882 15.9009C5.69697 15.834 5.54085 15.7352 5.40956 15.6103C5.27826 15.4853 5.17444 15.3368 5.10413 15.1732C5.03382 15.0097 4.99844 14.8345 5.00005 14.6578C5.00167 14.4811 5.04024 14.3065 5.11352 14.1441C5.18681 13.9818 5.29334 13.835 5.42689 13.7122L11.0201 8.3896C11.2824 8.14014 11.638 8 12.0087 8C12.3795 8 12.7351 8.14014 12.9973 8.3896L18.5906 13.7122C18.7861 13.8983 18.9192 14.1354 18.9731 14.3935C19.0271 14.6516 18.9994 14.9191 18.8936 15.1622C18.7878 15.4053 18.6086 15.6131 18.3787 15.7593C18.1488 15.9055 17.8785 15.9836 17.602 15.9836Z" fill="#33423D"/>
</svg>
