<svg width="24" height="24" viewBox="0 0 24 24" fill="none" xmlns="http://www.w3.org/2000/svg">
<mask id="mask0_2033_600" style="mask-type:alpha" maskUnits="userSpaceOnUse" x="0" y="0" width="24" height="24">
<rect width="24" height="24" fill="#33423d"/>
</mask>
<g mask="url(#mask0_2033_600)">
<path d="M5 21V11C4.45 11 3.97917 10.8042 3.5875 10.4125C3.19583 10.0208 3 9.55 3 9V3.7C3 3.5 3.06667 3.33333 3.2 3.2C3.33333 3.06667 3.5 3 3.7 3C3.9 3 4.06667 3.06667 4.2 3.2C4.33333 3.33333 4.4 3.5 4.4 3.7V7H5.3V3.7C5.3 3.5 5.36667 3.33333 5.5 3.2C5.63333 3.06667 5.8 3 6 3C6.2 3 6.36667 3.06667 6.5 3.2C6.63333 3.33333 6.7 3.5 6.7 3.7V7H7.6V3.7C7.6 3.5 7.66667 3.33333 7.8 3.2C7.93333 3.06667 8.1 3 8.3 3C8.5 3 8.66667 3.06667 8.8 3.2C8.93333 3.33333 9 3.5 9 3.7V9C9 9.55 8.80417 10.0208 8.4125 10.4125C8.02083 10.8042 7.55 11 7 11V21H5ZM12 21V10.9C11.3 10.5667 10.7917 10.0458 10.475 9.3375C10.1583 8.62917 10 7.88333 10 7.1C10 6.05 10.2625 5.10417 10.7875 4.2625C11.3125 3.42083 12.05 3 13 3C13.95 3 14.6875 3.42083 15.2125 4.2625C15.7375 5.10417 16 6.05 16 7.1C16 7.88333 15.8417 8.62917 15.525 9.3375C15.2083 10.0458 14.7 10.5667 14 10.9V21H12ZM17 21V3C18.1 3 19.0417 3.39167 19.825 4.175C20.6083 4.95833 21 5.9 21 7V13H19V21H17Z" fill="#33423D"/>
</g>
</svg>
