<svg width="37" height="37" viewBox="0 0 37 37" fill="none" xmlns="http://www.w3.org/2000/svg">
<path d="M32.2241 19.3236C32.3742 18.9301 32.4134 18.4972 32.3368 18.0795C32.2603 17.6617 32.0714 17.2781 31.794 16.977L23.8649 8.36573C23.682 8.16011 23.4633 7.9961 23.2215 7.88328C22.9796 7.77045 22.7195 7.71106 22.4563 7.70858C22.1931 7.70609 21.9321 7.76056 21.6885 7.86881C21.4448 7.97706 21.2235 8.13691 21.0374 8.33904C20.8513 8.54118 20.7041 8.78155 20.6044 9.04612C20.5047 9.3107 20.4546 9.59418 20.4569 9.88003C20.4592 10.1659 20.5139 10.4484 20.6177 10.711C20.7216 10.9737 20.8726 11.2112 21.062 11.4098L25.6093 16.3484H6.60727C6.08154 16.3484 5.57734 16.5752 5.20559 16.979C4.83385 17.3827 4.625 17.9303 4.625 18.5012C4.625 19.0722 4.83385 19.6198 5.20559 20.0235C5.57734 20.4272 6.08154 20.6541 6.60727 20.6541H25.6093L21.064 25.5905C20.8746 25.7891 20.7236 26.0266 20.6197 26.2893C20.5158 26.552 20.4611 26.8344 20.4589 27.1203C20.4566 27.4061 20.5067 27.6896 20.6064 27.9542C20.7061 28.2188 20.8533 28.4591 21.0394 28.6613C21.2255 28.8634 21.4468 29.0233 21.6904 29.1315C21.9341 29.2398 22.1951 29.2942 22.4583 29.2917C22.7215 29.2893 22.9816 29.2299 23.2234 29.117C23.4653 29.0042 23.684 28.8402 23.8669 28.6346L31.796 20.0233C31.9796 19.8229 32.1251 19.5851 32.2241 19.3236V19.3236Z" fill="#DF591B"/>
</svg>
