<svg width="107" height="107" viewBox="0 0 107 107" fill="none" xmlns="http://www.w3.org/2000/svg">
<g opacity="0.1">
<path d="M40.125 22.2915H22.2917C17.3741 22.2915 13.375 26.2906 13.375 31.2082V49.0415C13.375 53.959 17.3741 57.9582 22.2917 57.9582H40.125V62.4165C40.125 69.7906 34.1241 75.7915 26.75 75.7915H22.2917C19.8307 75.7915 17.8333 77.7844 17.8333 80.2498C17.8333 82.7153 19.8307 84.7082 22.2917 84.7082H26.75C39.0416 84.7082 49.0417 74.7081 49.0417 62.4165V31.2082C49.0417 26.2906 45.0425 22.2915 40.125 22.2915Z" fill="#8CA69D"/>
<path d="M84.7083 22.2915H66.875C61.9575 22.2915 57.9583 26.2906 57.9583 31.2082V49.0415C57.9583 53.959 61.9575 57.9582 66.875 57.9582H84.7083V62.4165C84.7083 69.7906 78.7074 75.7915 71.3333 75.7915H66.875C64.414 75.7915 62.4167 77.7844 62.4167 80.2498C62.4167 82.7153 64.414 84.7082 66.875 84.7082H71.3333C83.625 84.7082 93.625 74.7081 93.625 62.4165V31.2082C93.625 26.2906 89.6259 22.2915 84.7083 22.2915Z" fill="#8CA69D"/>
</g>
</svg>
