<svg width="174" height="138" viewBox="0 0 174 138" fill="none" xmlns="http://www.w3.org/2000/svg">
<path d="M174 138H99.8889V71.4605C99.8889 60.7628 101.607 51.5628 105.044 43.8605C108.481 36.0155 113.064 29.3116 118.793 23.7488C124.664 18.0434 131.467 13.3364 139.2 9.62791C146.933 5.77674 155.096 2.56744 163.689 0L173.785 22.6791C167.484 24.9612 162.185 27.3147 157.889 29.7395C153.736 32.0217 150.299 34.6605 147.578 37.6558C145 40.5085 143.138 43.8605 141.993 47.7116C140.847 51.4202 140.274 55.8419 140.274 60.9767H174V138ZM74.3259 138H0V71.4605C0 60.7628 1.71852 51.5628 5.15556 43.8605C8.59259 36.0155 13.1753 29.3116 18.9037 23.7488C24.7753 18.0434 31.5778 13.3364 39.3111 9.62791C47.1877 5.77674 55.4222 2.56744 64.0148 0L74.1111 22.6791C67.8099 24.9612 62.5111 27.3147 58.2148 29.7395C54.0617 32.0217 50.6247 34.6605 47.9037 37.6558C45.3259 40.5085 43.4642 43.8605 42.3185 47.7116C41.1728 51.4202 40.6 55.8419 40.6 60.9767H74.3259V138Z" fill="#FBDABB" fill-opacity="0.2"/>
</svg>
